
<svg width="36" height="39" viewBox="0 0 36 39" fill="none" xmlns="http://www.w3.org/2000/svg">
<path d="M24.7482 20.7C25.2801 20.7 25.8067 20.8047 26.2981 21.0082C26.7894 21.2118 27.2359 21.5101 27.612 21.8862C27.9881 22.2622 28.2864 22.7087 28.4899 23.2001C28.6934 23.6915 28.7982 24.2181 28.7982 24.75V26.379C28.7982 27.3516 28.588 28.3128 28.1819 29.1967C27.7758 30.0806 27.1836 30.8663 26.4456 31.5C23.6268 33.9192 19.5948 35.1018 14.3928 35.1018C9.1908 35.1018 5.1624 33.9192 2.349 31.5018C1.61193 30.8679 1.02046 30.0824 0.615038 29.1989C0.20962 28.3153 -0.00017586 27.3547 1.10608e-07 26.3826V24.75C1.10608e-07 23.6758 0.426695 22.6457 1.18622 21.8862C1.94574 21.1266 2.97587 20.7 4.05 20.7H24.7482Z" fill="url(#paint0_radial_81027_6467)"/>
<path d="M24.7482 20.7C25.2801 20.7 25.8067 20.8047 26.2981 21.0082C26.7894 21.2118 27.2359 21.5101 27.612 21.8862C27.9881 22.2622 28.2864 22.7087 28.4899 23.2001C28.6934 23.6915 28.7982 24.2181 28.7982 24.75V26.379C28.7982 27.3516 28.588 28.3128 28.1819 29.1967C27.7758 30.0806 27.1836 30.8663 26.4456 31.5C23.6268 33.9192 19.5948 35.1018 14.3928 35.1018C9.1908 35.1018 5.1624 33.9192 2.349 31.5018C1.61193 30.8679 1.02046 30.0824 0.615038 29.1989C0.20962 28.3153 -0.00017586 27.3547 1.10608e-07 26.3826V24.75C1.10608e-07 23.6758 0.426695 22.6457 1.18622 21.8862C1.94574 21.1266 2.97587 20.7 4.05 20.7H24.7482Z" fill="url(#paint1_linear_81027_6467)"/>
<path d="M24.7482 20.7C25.2801 20.7 25.8067 20.8047 26.2981 21.0082C26.7894 21.2118 27.2359 21.5101 27.612 21.8862C27.9881 22.2622 28.2864 22.7087 28.4899 23.2001C28.6934 23.6915 28.7982 24.2181 28.7982 24.75V26.379C28.7982 27.3516 28.588 28.3128 28.1819 29.1967C27.7758 30.0806 27.1836 30.8663 26.4456 31.5C23.6268 33.9192 19.5948 35.1018 14.3928 35.1018C9.1908 35.1018 5.1624 33.9192 2.349 31.5018C1.61193 30.8679 1.02046 30.0824 0.615038 29.1989C0.20962 28.3153 -0.00017586 27.3547 1.10608e-07 26.3826V24.75C1.10608e-07 23.6758 0.426695 22.6457 1.18622 21.8862C1.94574 21.1266 2.97587 20.7 4.05 20.7H24.7482Z" fill="url(#paint2_radial_81027_6467)"/>
<path d="M24.7482 20.7C25.2801 20.7 25.8067 20.8047 26.2981 21.0082C26.7894 21.2118 27.2359 21.5101 27.612 21.8862C27.9881 22.2622 28.2864 22.7087 28.4899 23.2001C28.6934 23.6915 28.7982 24.2181 28.7982 24.75V26.379C28.7982 27.3516 28.588 28.3128 28.1819 29.1967C27.7758 30.0806 27.1836 30.8663 26.4456 31.5C23.6268 33.9192 19.5948 35.1018 14.3928 35.1018C9.1908 35.1018 5.1624 33.9192 2.349 31.5018C1.61193 30.8679 1.02046 30.0824 0.615038 29.1989C0.20962 28.3153 -0.00017586 27.3547 1.10608e-07 26.3826V24.75C1.10608e-07 23.6758 0.426695 22.6457 1.18622 21.8862C1.94574 21.1266 2.97587 20.7 4.05 20.7H24.7482Z" fill="url(#paint3_radial_81027_6467)"/>
<path d="M24.7482 20.7C25.2801 20.7 25.8067 20.8047 26.2981 21.0082C26.7894 21.2118 27.2359 21.5101 27.612 21.8862C27.9881 22.2622 28.2864 22.7087 28.4899 23.2001C28.6934 23.6915 28.7982 24.2181 28.7982 24.75V26.379C28.7982 27.3516 28.588 28.3128 28.1819 29.1967C27.7758 30.0806 27.1836 30.8663 26.4456 31.5C23.6268 33.9192 19.5948 35.1018 14.3928 35.1018C9.1908 35.1018 5.1624 33.9192 2.349 31.5018C1.61193 30.8679 1.02046 30.0824 0.615038 29.1989C0.20962 28.3153 -0.00017586 27.3547 1.10608e-07 26.3826V24.75C1.10608e-07 23.6758 0.426695 22.6457 1.18622 21.8862C1.94574 21.1266 2.97587 20.7 4.05 20.7H24.7482Z" fill="url(#paint4_radial_81027_6467)"/>
<path d="M14.3929 0L14.2093 0.0125999C13.8861 0.0569669 13.5899 0.216865 13.3755 0.462725C13.161 0.708584 13.0429 1.02377 13.0429 1.35L13.0303 4.5H15.7303L15.7429 1.35L15.7303 1.1664C15.6859 0.843203 15.526 0.547005 15.2801 0.332581C15.0343 0.118157 14.7191 1.37572e-05 14.3929 0Z" fill="url(#paint5_linear_81027_6467)"/>
<path d="M25.1928 6.74995C25.1928 5.67582 24.7661 4.64569 24.0066 3.88617C23.247 3.12665 22.2169 2.69995 21.1428 2.69995H7.64277C6.56865 2.69995 5.53851 3.12665 4.77899 3.88617C4.01947 4.64569 3.59277 5.67582 3.59277 6.74995V13.05C3.59277 14.1241 4.01947 15.1542 4.77899 15.9137C5.53851 16.6733 6.56865 17.1 7.64277 17.1H21.1428C22.2169 17.1 23.247 16.6733 24.0066 15.9137C24.7661 15.1542 25.1928 14.1241 25.1928 13.05V6.74995Z" fill="url(#paint6_radial_81027_6467)"/>
<path d="M18.4284 7.20012C18.1277 7.19161 17.8283 7.24349 17.548 7.35269C17.2677 7.46189 17.0121 7.6262 16.7964 7.83589C16.5807 8.04558 16.4092 8.29639 16.2922 8.5735C16.1751 8.85061 16.1147 9.14839 16.1147 9.44922C16.1147 9.75005 16.1751 10.0478 16.2922 10.3249C16.4092 10.602 16.5807 10.8529 16.7964 11.0625C17.0121 11.2722 17.2677 11.4365 17.548 11.5457C17.8283 11.6549 18.1277 11.7068 18.4284 11.6983C19.0139 11.6818 19.5698 11.4375 19.9781 11.0176C20.3863 10.5976 20.6147 10.0349 20.6147 9.44922C20.6147 8.8635 20.3863 8.30087 19.9781 7.88089C19.5698 7.46091 19.0139 7.21668 18.4284 7.20012Z" fill="url(#paint7_linear_81027_6467)"/>
<path d="M10.3427 7.20012C10.042 7.19161 9.74261 7.24349 9.4623 7.35269C9.18199 7.46189 8.92643 7.6262 8.71072 7.83589C8.49502 8.04558 8.32355 8.29639 8.20646 8.5735C8.08938 8.85061 8.02905 9.14839 8.02905 9.44922C8.02905 9.75005 8.08938 10.0478 8.20646 10.3249C8.32355 10.602 8.49502 10.8529 8.71072 11.0625C8.92643 11.2722 9.18199 11.4365 9.4623 11.5457C9.74261 11.6549 10.042 11.7068 10.3427 11.6983C10.9282 11.6818 11.4841 11.4375 11.8924 11.0176C12.3007 10.5976 12.5291 10.0349 12.5291 9.44922C12.5291 8.8635 12.3007 8.30087 11.8924 7.88089C11.4841 7.46091 10.9282 7.21668 10.3427 7.20012Z" fill="url(#paint8_linear_81027_6467)"/>
<path d="M34.2251 33.2369L35.6021 33.6833L35.6291 33.6905C35.7085 33.7185 35.7803 33.7646 35.8389 33.825C35.8976 33.8854 35.9414 33.9586 35.967 34.0388C35.9927 34.119 35.9994 34.204 35.9867 34.2872C35.9739 34.3705 35.9421 34.4496 35.8937 34.5185C35.8283 34.6105 35.7358 34.6798 35.6291 34.7165L34.2521 35.1629C33.833 35.3023 33.4522 35.5374 33.1398 35.8495C32.8273 36.1616 32.5919 36.5422 32.4521 36.9611L32.0057 38.3363C31.9684 38.4426 31.899 38.5347 31.8071 38.5999C31.7152 38.6651 31.6053 38.7001 31.4927 38.7001C31.38 38.7001 31.2701 38.6651 31.1782 38.5999C31.0863 38.5347 31.0169 38.4426 30.9797 38.3363L30.5315 36.9611C30.3926 36.5414 30.1577 36.1598 29.8456 35.8468C29.5334 35.5337 29.1526 35.2977 28.7333 35.1575L27.3563 34.7093C27.2769 34.6813 27.2051 34.6352 27.1464 34.5748C27.0878 34.5144 27.0439 34.4412 27.0183 34.361C26.9927 34.2808 26.986 34.1958 26.9987 34.1125C27.0114 34.0293 27.0433 33.9502 27.0917 33.8813C27.157 33.7893 27.2496 33.72 27.3563 33.6833L28.7333 33.2369C29.1468 33.0939 29.5218 32.8574 29.829 32.5458C30.1362 32.2343 30.3673 31.856 30.5045 31.4405L30.9527 30.0635C30.99 29.9572 31.0593 29.8651 31.1512 29.7999C31.2431 29.7347 31.353 29.6997 31.4657 29.6997C31.5783 29.6997 31.6882 29.7347 31.7801 29.7999C31.872 29.8651 31.9414 29.9572 31.9787 30.0635L32.4269 31.4387C32.5665 31.8574 32.8017 32.2379 33.1138 32.55C33.4259 32.8621 33.8064 33.0973 34.2251 33.2369Z" fill="url(#paint9_linear_81027_6467)"/>
<path d="M21.3301 26.3627C21.8909 26.9265 22.3131 27.613 22.5631 28.3679L23.3695 30.8465C23.4369 31.0375 23.5619 31.203 23.7273 31.32C23.8927 31.437 24.0903 31.4999 24.2929 31.4999C24.4955 31.4999 24.6931 31.437 24.8585 31.32C25.0238 31.203 25.1489 31.0375 25.2163 30.8465L26.0227 28.3679C26.274 27.6147 26.6973 26.9304 27.2591 26.3693C27.8209 25.8082 28.5056 25.3856 29.2591 25.1351L31.7395 24.3287C31.9291 24.2601 32.093 24.1347 32.2088 23.9697C32.3246 23.8046 32.3868 23.6078 32.3868 23.4062C32.3868 23.2045 32.3246 23.0078 32.2088 22.8427C32.093 22.6777 31.9291 22.5523 31.7395 22.4837L31.6891 22.4711L29.2087 21.6647C28.4552 21.4142 27.7705 20.9916 27.2087 20.4305C26.6469 19.8694 26.2236 19.1851 25.9723 18.4319L25.1677 15.9533C25.1006 15.7616 24.9757 15.5955 24.8101 15.478C24.6445 15.3605 24.4464 15.2974 24.2434 15.2974C24.0403 15.2974 23.8423 15.3605 23.6767 15.478C23.5111 15.5955 23.3861 15.7616 23.3191 15.9533L22.5127 18.4319L22.4929 18.4931C22.2407 19.2275 21.8245 19.8948 21.2759 20.4443C20.7272 20.9939 20.0607 21.4112 19.3267 21.6647L16.8463 22.4711C16.6566 22.5397 16.4928 22.6651 16.3769 22.8301C16.2611 22.9952 16.199 23.1919 16.199 23.3936C16.199 23.5952 16.2611 23.792 16.3769 23.9571C16.4928 24.1221 16.6566 24.2475 16.8463 24.3161L19.3267 25.1225C20.0827 25.3745 20.7667 25.7993 21.3301 26.3627Z" fill="url(#paint10_linear_81027_6467)"/>
<defs>
<radialGradient id="paint0_radial_81027_6467" cx="0" cy="0" r="1" gradientUnits="userSpaceOnUse" gradientTransform="translate(-6.64663 16.2685) rotate(30.408) scale(40.0549 63.801)">
<stop stop-color="#F08AF4"/>
<stop offset="0.535" stop-color="#9C6CFE"/>
<stop offset="1" stop-color="#4E44DB"/>
</radialGradient>
<linearGradient id="paint1_linear_81027_6467" x1="14.3982" y1="18.9846" x2="20.9142" y2="43.3314" gradientUnits="userSpaceOnUse">
<stop stop-color="#885EDB" stop-opacity="0"/>
<stop offset="1" stop-color="#E362F8"/>
</linearGradient>
<radialGradient id="paint2_radial_81027_6467" cx="0" cy="0" r="1" gradientUnits="userSpaceOnUse" gradientTransform="translate(24.3684 27.3474) rotate(-90) scale(6.64711 3.77296)">
<stop stop-color="#4E44DB"/>
<stop offset="1" stop-color="#4E44DB" stop-opacity="0"/>
</radialGradient>
<radialGradient id="paint3_radial_81027_6467" cx="0" cy="0" r="1" gradientUnits="userSpaceOnUse" gradientTransform="translate(23.2603 25.1316) rotate(-134.995) scale(6.26641 4.6998)">
<stop stop-color="#4E44DB"/>
<stop offset="1" stop-color="#4E44DB" stop-opacity="0"/>
</radialGradient>
<radialGradient id="paint4_radial_81027_6467" cx="0" cy="0" r="1" gradientUnits="userSpaceOnUse" gradientTransform="translate(24.3684 24.0228) rotate(180) scale(9.96892 3.9121)">
<stop stop-color="#4E44DB"/>
<stop offset="1" stop-color="#4E44DB" stop-opacity="0"/>
</radialGradient>
<linearGradient id="paint5_linear_81027_6467" x1="12.9691" y1="-0.9" x2="16.1641" y2="2.4678" gradientUnits="userSpaceOnUse">
<stop stop-color="#8B52F4"/>
<stop offset="1" stop-color="#3D35B1"/>
</linearGradient>
<radialGradient id="paint6_radial_81027_6467" cx="0" cy="0" r="1" gradientUnits="userSpaceOnUse" gradientTransform="translate(-3.96753 -3.47159) rotate(37.695) scale(35.9986 68.0051)">
<stop stop-color="#F08AF4"/>
<stop offset="0.535" stop-color="#9C6CFE"/>
<stop offset="1" stop-color="#4E44DB"/>
</radialGradient>
<linearGradient id="paint7_linear_81027_6467" x1="17.2458" y1="7.37292" x2="20.655" y2="13.2571" gradientUnits="userSpaceOnUse">
<stop stop-color="#FDFDFD"/>
<stop offset="1" stop-color="#F9DCFA"/>
</linearGradient>
<linearGradient id="paint8_linear_81027_6467" x1="9.15829" y1="7.37292" x2="12.5675" y2="13.2571" gradientUnits="userSpaceOnUse">
<stop stop-color="#FDFDFD"/>
<stop offset="1" stop-color="#F9DCFA"/>
</linearGradient>
<linearGradient id="paint9_linear_81027_6467" x1="28.7927" y1="30.5999" x2="34.1963" y2="37.7981" gradientUnits="userSpaceOnUse">
<stop stop-color="#FFA43D"/>
<stop offset="1" stop-color="#FB5937"/>
</linearGradient>
<linearGradient id="paint10_linear_81027_6467" x1="28.9207" y1="29.1851" x2="17.5609" y2="16.1225" gradientUnits="userSpaceOnUse">
<stop stop-color="#FF8A69"/>
<stop offset="1" stop-color="#FFCD0F"/>
</linearGradient>
</defs>
</svg>
